<?xml version="1.0" encoding="UTF-8" standalone="no"?>
<svg
   data-v-7de99436=""
   data-v-74645954=""
   version="1.1"
   width="221"
   height="32"
   xml:space="preserve"
   id="groupCanvas"
   sodipodi:docname="mobilizon-mirror-logo.svg"
   inkscape:version="1.1 (c4e8f9ed74, 2021-05-24)"
   xmlns:inkscape="http://www.inkscape.org/namespaces/inkscape"
   xmlns:sodipodi="http://sodipodi.sourceforge.net/DTD/sodipodi-0.dtd"
   xmlns="http://www.w3.org/2000/svg"
   xmlns:svg="http://www.w3.org/2000/svg"><defs
     id="defs1537" /><sodipodi:namedview
     id="namedview1535"
     pagecolor="#505050"
     bordercolor="#eeeeee"
     borderopacity="1"
     inkscape:pageshadow="0"
     inkscape:pageopacity="0"
     inkscape:pagecheckerboard="0"
     showgrid="false"
     inkscape:zoom="7.6918919"
     inkscape:cx="192.93043"
     inkscape:cy="16.055868"
     inkscape:window-width="1920"
     inkscape:window-height="1011"
     inkscape:window-x="0"
     inkscape:window-y="0"
     inkscape:window-maximized="1"
     inkscape:current-layer="groupCanvas-page1" /><g
     data-v-7de99436=""
     id="groupCanvas-page1"><g
       data-v-7de99436=""
       id="groupCanvas-group3"><path
         data-v-7de99436=""
         id="groupCanvas-mobilizonLogon"
         stroke="none"
         d="m 116.04,10.59 c -1.03,0.27 -2.27,1.05 -3.21,2.01 -0.18,0.17 -0.34,0.31 -0.38,0.31 -0.04,0 -0.09,-0.13 -0.1,-0.27 -0.14,-0.84 -0.71,-1.66 -1.31,-1.88 -0.44,-0.16 -2.35,-0.2 -2.5,-0.05 -0.08,0.09 -0.1,1.43 -0.1,10.06 v 9.95 l 0.33,0.06 c 0.4,0.09 3.16,0.09 3.49,0 l 0.24,-0.06 v -6.88 -6.9 l 0.39,-0.46 c 0.49,-0.55 0.98,-0.92 1.72,-1.24 0.52,-0.23 0.67,-0.25 1.32,-0.25 0.72,0 0.73,0 1.06,0.27 0.35,0.3 0.56,0.76 0.69,1.54 0.05,0.29 0.08,2.18 0.08,6.05 0,6.12 0,6.26 0.39,7.1 0.31,0.72 0.88,1.03 1.9,1.03 0.34,0 0.78,-0.07 0.99,-0.13 0.41,-0.13 1.05,-0.5 1.29,-0.74 l 0.15,-0.16 -0.22,-0.73 c -0.44,-1.37 -0.44,-1.6 -0.44,-7.74 0,-3.68 -0.03,-5.68 -0.07,-6.01 -0.12,-0.8 -0.32,-1.5 -0.64,-2.32 -0.57,-1.38 -1.47,-2.24 -2.68,-2.56 -0.59,-0.15 -1.82,-0.15 -2.39,0 z m 0,0" /><g
         data-v-7de99436=""
         id="groupCanvas-mobilizonLogoi3"><path
           data-v-7de99436=""
           id="groupCanvas-mobilizonLogopath2"
           stroke="none"
           fill="#474467"
           d="m 166.36,3.63 c -0.15,0.03 -0.44,0.15 -0.65,0.24 l -0.38,0.17 -0.15,0.58 c -0.2,0.81 -0.2,2.06 0,2.87 0.15,0.58 0.16,0.6 0.51,0.8 0.51,0.3 0.87,0.38 1.75,0.38 0.82,0 1.34,-0.12 1.81,-0.42 0.22,-0.13 0.28,-0.22 0.38,-0.59 0.06,-0.23 0.12,-0.83 0.13,-1.32 0.04,-0.76 0.02,-0.99 -0.11,-1.55 -0.14,-0.65 -0.14,-0.67 -0.45,-0.84 -0.55,-0.3 -1.01,-0.41 -1.81,-0.4 -0.42,0 -0.89,0.03 -1.03,0.08 z m 0,0" /><path
           data-v-7de99436=""
           id="groupCanvas-mobilizonLogopath3"
           stroke="none"
           d="m 165.4,10.98 c -0.63,0.04 -1.18,0.09 -1.21,0.14 -0.12,0.14 -0.21,1.3 -0.17,2.17 0.06,1.38 0.05,1.35 0.54,1.35 0.69,0 1.15,0.4 1.38,1.21 0.06,0.22 0.08,2.12 0.11,7.71 l 0.02,7.43 0.24,0.06 c 0.33,0.08 3.08,0.08 3.5,0 l 0.31,-0.06 v -8.32 c 0,-9.16 0,-8.96 -0.42,-9.92 -0.47,-1.08 -1.19,-1.65 -2.26,-1.78 -0.34,-0.04 -0.68,-0.07 -0.75,-0.06 -0.08,0.01 -0.65,0.03 -1.29,0.07 z m 0,0" /></g><path
         data-v-7de99436=""
         id="groupCanvas-mobilizonLogor"
         stroke="none"
         d="m 177.60231,31.299745 0.24,-0.08 v -13.76 l 0.38,-0.46 c 0.49,-0.57 0.99,-0.93 1.73,-1.25 0.52,-0.22 0.67,-0.25 1.32,-0.26 0.48,0 0.83,0.09 1.05,0.27 l 0.09,0.13 0.29,-5.02 c -0.36,-0.02 -0.66,0.05 -1.32,0.22 -1.03,0.29 -2.27,1.05 -3.21,2.01 -0.18,0.18 -0.34,0.31 -0.39,0.31 -0.03,0 -0.08,-0.11 -0.1,-0.26 -0.14,-0.84 -0.7,-1.66 -1.3,-1.88 -0.44,-0.17 -2.35,-0.2 -2.5,-0.05 -0.07,0.07 -0.09,1.01 -0.09,6.33 v 0.59 c 0,0.1 0,0.2 0,0.31 v 12.77 l 0.31,0.08 c 0.19,0.03 0.87,0.05 1.58,0.05 h 0.39 c 0.71,0 1.37,-0.02 1.53,-0.05 z m 0,0" /><path
         data-v-7de99436=""
         id="groupCanvas-mobilizonLogor-2"
         stroke="none"
         d="m 214.50201,31.196935 0.24,-0.08 v -13.76 l 0.38,-0.46 c 0.49,-0.57 0.99,-0.93 1.73,-1.25 0.52,-0.22 0.67,-0.25 1.32,-0.26 0.48,0 0.83,0.09 1.05,0.27 l 0.09,0.13 0.29,-5.02 c -0.36,-0.02 -0.66,0.05 -1.32,0.22 -1.03,0.29 -2.27,1.05 -3.21,2.01 -0.18,0.18 -0.34,0.31 -0.39,0.31 -0.03,0 -0.08,-0.11 -0.1,-0.26 -0.14,-0.84 -0.7,-1.66 -1.3,-1.88 -0.44,-0.17 -2.35,-0.2 -2.5,-0.05 -0.07,0.07 -0.09,1.01 -0.09,6.33 v 0.59 c 0,0.1 0,0.2 0,0.31 v 12.77 l 0.31,0.08 c 0.19,0.03 0.87,0.05 1.58,0.05 h 0.39 c 0.71,0 1.37,-0.02 1.53,-0.05 z m 0,0" /><path
         data-v-7de99436=""
         id="groupCanvas-mobilizonLogor-5"
         stroke="none"
         d="m 188.35563,31.198841 0.24,-0.08 v -13.76 l 0.38,-0.46 c 0.49,-0.57 0.99,-0.93 1.73,-1.25 0.52,-0.22 0.67,-0.25 1.32,-0.26 0.48,0 0.83,0.09 1.05,0.27 l 0.09,0.13 0.29,-5.02 c -0.36,-0.02 -0.66,0.05 -1.32,0.22 -1.03,0.29 -2.27,1.05 -3.21,2.01 -0.18,0.18 -0.34,0.31 -0.39,0.31 -0.03,0 -0.08,-0.11 -0.1,-0.26 -0.14,-0.84 -0.7,-1.66 -1.3,-1.88 -0.44,-0.17 -2.35,-0.2 -2.5,-0.05 -0.07,0.07 -0.09,1.01 -0.09,6.33 v 0.59 c 0,0.1 0,0.2 0,0.31 v 12.77 l 0.31,0.08 c 0.19,0.03 0.87,0.05 1.58,0.05 h 0.39 c 0.71,0 1.37,-0.02 1.53,-0.05 z m 0,0" /><path
         data-v-7de99436=""
         id="groupCanvas-mobilizonLogoz"
         stroke="none"
         d="m 78.17,11.75 c -0.1,0.68 -0.12,2.52 -0.04,2.89 l 0.05,0.23 h 2.58 c 1.77,0 2.91,-0.05 3.66,-0.13 1.1,-0.12 1.28,-0.1 1.17,0.15 -0.06,0.11 -0.52,0.78 -1.13,1.6 -0.73,0.99 -0.95,1.34 -3.4,5.37 -3.13,5.16 -3.29,5.45 -3.38,6.25 -0.04,0.44 0.08,1.43 0.31,2.34 l 0.14,0.62 5.37,-0.03 c 5.32,-0.02 5.35,-0.02 5.71,-0.2 1.03,-0.52 1.33,-1.45 1.01,-3.14 -0.18,-1.01 -0.18,-1.01 -0.54,-0.89 -1.12,0.4 -1.41,0.44 -4.08,0.51 -1.43,0.04 -2.76,0.09 -2.94,0.13 -0.31,0.04 -0.36,0.02 -0.36,-0.09 0,-0.07 0.28,-0.52 0.62,-1 0.34,-0.49 0.92,-1.37 1.29,-1.98 1.85,-3.05 2.84,-4.68 3.33,-5.49 0.3,-0.49 0.91,-1.51 1.37,-2.27 0.9,-1.5 1.07,-1.94 1.06,-2.73 -0.01,-0.49 -0.29,-2.01 -0.44,-2.48 l -0.1,-0.29 h -5.58 -5.59 z m 0,0" /><g
         data-v-7de99436=""
         id="groupCanvas-mobilizonLogoi2"><path
           data-v-7de99436=""
           id="groupCanvas-mobilizonLogopath8"
           stroke="none"
           fill="#474467"
           d="m 71.919373,2.2396467 c -0.15,0.03 -0.44,0.15 -0.65,0.24 l -0.39,0.17 -0.14,0.58 c -0.21,0.81 -0.21,2.06 0,2.88 0.14,0.57 0.15,0.59 0.51,0.79 0.51,0.3 0.87,0.37 1.75,0.38 0.82,0 1.34,-0.13 1.82,-0.42 0.21,-0.14 0.27,-0.23 0.36,-0.59 0.06,-0.23 0.13,-0.83 0.14,-1.32 0.04,-0.76 0.02,-1 -0.11,-1.55 -0.14,-0.65 -0.15,-0.67 -0.45,-0.84 -0.55,-0.31 -1.01,-0.42 -1.81,-0.41 -0.42,0.01 -0.89,0.04 -1.03,0.09 z m 0,0" /><path
           data-v-7de99436=""
           id="groupCanvas-mobilizonLogopath9"
           stroke="none"
           d="m 71,10.9 c -0.63,0.03 -1.18,0.09 -1.21,0.14 -0.12,0.14 -0.2,1.29 -0.17,2.17 0.06,1.38 0.05,1.35 0.53,1.35 0.71,0 1.16,0.41 1.39,1.21 0.06,0.22 0.09,2.12 0.11,7.71 l 0.01,7.42 0.25,0.07 c 0.33,0.08 3.09,0.08 3.49,0 l 0.31,-0.07 v -8.32 c 0,-9.15 0.01,-8.95 -0.41,-9.91 -0.47,-1.09 -1.18,-1.65 -2.26,-1.77 -0.34,-0.05 -0.67,-0.07 -0.75,-0.07 -0.07,0 -0.65,0.03 -1.29,0.07 z m 0,0" /></g><path
         data-v-7de99436=""
         id="groupCanvas-mobilizonLogol1"
         stroke="none"
         d="m 62.85,1.53 c -0.1,0.13 -0.1,1.06 -0.09,13.11 0.02,14.49 -0.01,13.39 0.5,14.57 0.39,0.92 0.99,1.46 1.93,1.74 0.41,0.12 0.67,0.14 1.67,0.1 1.07,-0.06 2.43,-0.24 2.53,-0.36 0.02,-0.02 0.04,-0.56 0.04,-1.19 0,-0.88 -0.03,-1.29 -0.13,-1.71 l -0.12,-0.54 h -0.55 c -0.67,0 -1.17,-0.11 -1.4,-0.31 -0.09,-0.08 -0.24,-0.29 -0.31,-0.47 L 66.77,26.15 66.74,14.71 C 66.7,2.35 66.73,3.25 66.37,2.34 66.24,2 65.77,1.58 65.37,1.46 65.23,1.41 64.63,1.37 64.03,1.37 c -0.95,0 -1.08,0.02 -1.18,0.16 z m 0,0" /><g
         data-v-7de99436=""
         id="groupCanvas-mobilizonLogoi1"><path
           data-v-7de99436=""
           id="groupCanvas-mobilizonLogopath11"
           stroke="none"
           fill="#474467"
           d="m 55.526679,2.2794923 c -0.22,0.05 -0.55,0.17 -0.73,0.26 -0.33,0.15 -0.34,0.17 -0.5,0.72 -0.27,0.99 -0.2,2.76 0.16,3.42 0.11,0.21 0.67,0.49 1.23,0.62 0.47,0.11 1.75,0.04 2.13,-0.12 0.68,-0.26 0.77,-0.37 0.91,-0.9 0.18,-0.71 0.18,-2.35 0,-3 -0.11,-0.42 -0.17,-0.5 -0.39,-0.64 -0.7,-0.44 -1.94,-0.6 -2.81,-0.36 z m 0,0" /><path
           data-v-7de99436=""
           id="groupCanvas-mobilizonLogopath12"
           stroke="none"
           d="m 55.24,10.83 c -0.83,0.04 -1.18,0.09 -1.22,0.16 -0.16,0.33 -0.2,2.5 -0.06,3.14 l 0.08,0.34 h 0.37 c 0.41,0 0.91,0.22 1.06,0.48 0.05,0.07 0.15,0.28 0.24,0.46 l 0.15,0.32 0.02,7.55 0.02,7.54 0.25,0.06 c 0.32,0.09 3.23,0.09 3.55,0 l 0.25,-0.06 -0.01,-8.6 -0.03,-8.6 -0.15,-0.46 C 59.5,12.38 59.13,11.75 58.67,11.38 57.97,10.81 57.31,10.7 55.24,10.83 Z m 0,0" /></g><path
         data-v-7de99436=""
         id="groupCanvas-mobilizonLogob1"
         stroke="none"
         d="m 39.97,1.3 c -0.1,0.16 -0.11,1.44 -0.11,14.31 v 14.12 l 0.65,0.26 c 2.89,1.14 6.16,1.41 8.04,0.63 2.69,-1.11 4.47,-3.75 4.99,-7.44 0.15,-1.05 0.17,-3.81 0.04,-4.92 -0.48,-4.12 -1.74,-6.55 -3.88,-7.49 -0.41,-0.19 -0.64,-0.23 -1.34,-0.27 -1.6,-0.08 -2.91,0.37 -4.13,1.42 -0.17,0.15 -0.33,0.28 -0.34,0.28 -0.02,0 -0.04,-1.96 -0.04,-4.35 0,-4.62 -0.01,-4.81 -0.33,-5.6 C 43.34,1.83 43.19,1.66 42.72,1.39 42.38,1.17 42.3,1.17 41.22,1.14 40.08,1.11 40.08,1.12 39.97,1.3 Z m 7.59,13.37 c 0.66,0.24 1.22,0.99 1.54,2.03 0.6,1.97 0.6,5.82 -0.01,7.83 -0.61,2.04 -1.6,2.96 -3.18,2.96 -0.56,0 -1.56,-0.15 -1.94,-0.29 -0.11,-0.05 -0.12,-0.37 -0.12,-5.43 v -5.4 l 0.39,-0.45 c 0.9,-1.08 2.31,-1.61 3.32,-1.25 z m 0,0" /><g
         data-v-7de99436=""
         id="groupCanvas-mobilizonLogoo"><path
           data-v-7de99436=""
           id="groupCanvas-mobilizonLogopath13"
           stroke="none"
           fill="#474467"
           d="m 29.9452,2.6402083 c -0.22,0.07 -0.54,0.18 -0.73,0.27 -0.31,0.14 -0.34,0.17 -0.46,0.59 -0.19,0.66 -0.23,2.1 -0.08,2.86 0.07,0.33 0.18,0.65 0.24,0.72 0.27,0.34 0.86,0.51 1.8,0.56 0.95,0.02 1.41,-0.05 2.02,-0.39 0.25,-0.13 0.3,-0.21 0.4,-0.55 0.25,-0.89 0.25,-2.15 0.01,-3.13 -0.12,-0.55 -0.24,-0.63 -1.02,-0.89 -0.59,-0.18 -1.57,-0.19 -2.18,-0.04 z m 0,0" /><path
           data-v-7de99436=""
           id="groupCanvas-mobilizonLogopath13-5"
           stroke="none"
           fill="#474467"
           d="m 98.323031,2.8809584 c -0.22,0.07 -0.54,0.18 -0.73,0.27 -0.31,0.14 -0.34,0.17 -0.46,0.59 -0.19,0.66 -0.23,2.1 -0.08,2.86 0.07,0.33 0.18,0.65 0.24,0.72 0.27,0.34 0.86,0.51 1.8,0.56 0.949999,0.02 1.409999,-0.05 2.019999,-0.39 0.25,-0.13 0.3,-0.21 0.4,-0.55 0.25,-0.89 0.25,-2.15 0.01,-3.13 -0.12,-0.55 -0.24,-0.63 -1.02,-0.89 -0.589999,-0.18 -1.569999,-0.19 -2.179999,-0.04 z m 0,0" /><path
           data-v-7de99436=""
           id="groupCanvas-mobilizonLogoshape5"
           stroke="none"
           d="m 97.94,10.06 c -1.39,0.33 -2.49,1.05 -3.53,2.31 -1.14,1.41 -1.77,3.12 -2.13,5.71 -0.11,0.82 -0.11,3.99 0,4.83 0.42,3.15 1.46,5.33 3.18,6.73 1.04,0.85 2.15,1.27 3.53,1.35 2.32,0.11 4.15,-0.72 5.51,-2.51 1.22,-1.6 1.85,-3.52 2.1,-6.25 0.09,-1.06 0.04,-3.51 -0.09,-4.52 -0.31,-2.2 -1.03,-4.02 -2.11,-5.34 -0.91,-1.12 -1.82,-1.77 -3.09,-2.19 -0.7,-0.23 -2.6,-0.31 -3.37,-0.12 z m 2.63,3.96 c 0.96,0.55 1.58,1.92 1.84,4.09 0.14,1.07 0.11,4.02 -0.03,5 -0.22,1.48 -0.6,2.58 -1.13,3.25 -0.12,0.15 -0.4,0.38 -0.64,0.53 -0.4,0.24 -0.47,0.26 -1.2,0.26 -0.68,0 -0.8,-0.03 -1.13,-0.22 -0.64,-0.36 -1.12,-1.07 -1.49,-2.2 -0.35,-1.07 -0.54,-3.48 -0.43,-5.44 0.12,-2.37 0.53,-3.84 1.27,-4.73 0.53,-0.62 0.97,-0.8 1.88,-0.77 0.57,0.01 0.73,0.04 1.06,0.23 z m 0,0" /><path
           data-v-7de99436=""
           id="groupCanvas-mobilizonLogoshape5-6"
           stroke="none"
           d="m 200.21415,10.417682 c -1.39,0.33 -2.49,1.05 -3.53,2.31 -1.14,1.41 -1.77,3.12 -2.13,5.71 -0.11,0.82 -0.11,3.99 0,4.83 0.42,3.15 1.46,5.33 3.18,6.73 1.04,0.85 2.15,1.27 3.53,1.35 2.32,0.11 4.15,-0.72 5.51,-2.51 1.22,-1.6 1.85,-3.52 2.1,-6.25 0.09,-1.06 0.04,-3.51 -0.09,-4.52 -0.31,-2.2 -1.03,-4.02 -2.11,-5.34 -0.91,-1.12 -1.82,-1.77 -3.09,-2.19 -0.7,-0.23 -2.6,-0.31 -3.37,-0.12 z m 2.63,3.96 c 0.96,0.55 1.58,1.92 1.84,4.09 0.14,1.07 0.11,4.02 -0.03,5 -0.22,1.48 -0.6,2.58 -1.13,3.25 -0.12,0.15 -0.4,0.38 -0.64,0.53 -0.4,0.24 -0.47,0.26 -1.2,0.26 -0.68,0 -0.8,-0.03 -1.13,-0.22 -0.64,-0.36 -1.12,-1.07 -1.49,-2.2 -0.35,-1.07 -0.54,-3.48 -0.43,-5.44 0.12,-2.37 0.53,-3.84 1.27,-4.73 0.53,-0.62 0.97,-0.8 1.88,-0.77 0.57,0.01 0.73,0.04 1.06,0.23 z m 0,0" /><path
           data-v-7de99436=""
           id="groupCanvas-mobilizonLogoshape5-7"
           stroke="none"
           d="m 29.871608,10.124403 c -1.39,0.33 -2.49,1.05 -3.53,2.31 -1.14,1.41 -1.77,3.12 -2.13,5.71 -0.11,0.82 -0.11,3.99 0,4.83 0.42,3.15 1.46,5.33 3.18,6.73 1.04,0.85 2.15,1.27 3.53,1.35 2.32,0.11 4.15,-0.72 5.51,-2.51 1.219999,-1.6 1.849999,-3.52 2.099999,-6.25 0.09,-1.06 0.04,-3.51 -0.09,-4.52 -0.31,-2.2 -1.029999,-4.02 -2.109999,-5.34 -0.91,-1.12 -1.82,-1.77 -3.09,-2.19 -0.7,-0.23 -2.6,-0.3099999 -3.37,-0.12 z m 2.63,3.96 c 0.96,0.55 1.58,1.92 1.84,4.09 0.14,1.07 0.11,4.02 -0.03,5 -0.22,1.48 -0.6,2.58 -1.13,3.25 -0.12,0.15 -0.4,0.38 -0.64,0.53 -0.4,0.24 -0.47,0.26 -1.2,0.26 -0.68,0 -0.8,-0.03 -1.13,-0.22 -0.64,-0.36 -1.12,-1.07 -1.49,-2.2 -0.35,-1.07 -0.54,-3.48 -0.43,-5.44 0.12,-2.37 0.53,-3.84 1.27,-4.73 0.53,-0.62 0.97,-0.8 1.88,-0.77 0.57,0.01 0.73,0.04 1.06,0.23 z m 0,0" /></g><path
         data-v-7de99436=""
         id="groupCanvas-mobilizonLogom"
         stroke="none"
         d="M 3.71,3.23 C 3.38,3.25 2.94,3.31 2.76,3.34 2.44,3.39 2.41,3.42 2.41,3.61 2.41,3.74 2.38,4.23 2.34,4.73 2.31,5.22 2.18,7.31 2.04,9.37 c -0.13,2.06 -0.31,4.89 -0.4,6.3 -0.09,1.41 -0.26,3.99 -0.36,5.74 -0.41,6.38 -0.53,8.31 -0.57,8.8 l -0.04,0.5 0.35,0.11 c 0.43,0.14 3.47,0.16 3.58,0.03 0.03,-0.05 0.14,-1.64 0.23,-3.54 0.1,-1.9 0.19,-3.66 0.21,-3.9 0.01,-0.25 0.04,-0.84 0.06,-1.31 0.02,-0.47 0.06,-1.05 0.07,-1.3 0.08,-1.11 0.24,-4.97 0.3,-7.12 0.12,-4.39 0.14,-4.77 0.26,-4.75 0.06,0.02 0.25,0.73 0.64,2.47 0.3,1.35 0.82,3.68 1.16,5.17 0.86,3.83 0.92,4.1 1.1,4.92 0.42,1.89 1.15,5.11 1.18,5.12 0.01,0.02 0.24,0.08 0.51,0.14 0.51,0.09 3.25,0.06 3.6,-0.05 0.19,-0.06 0.14,0.13 0.89,-3.29 0.09,-0.39 0.35,-1.56 0.59,-2.61 0.6,-2.62 1.99,-8.77 2.36,-10.45 0.3,-1.32 0.42,-1.61 0.55,-1.34 0.04,0.07 0.06,0.66 0.06,1.33 0,1.71 0.11,4.54 0.34,9.28 0.42,8.69 0.47,9.71 0.51,10.46 l 0.05,0.77 0.37,0.05 c 1.02,0.15 3.38,0.02 3.56,-0.19 0.02,-0.03 0,-0.47 -0.04,-1 -0.03,-0.54 -0.14,-2.19 -0.23,-3.66 -0.09,-1.48 -0.2,-3.14 -0.24,-3.7 -0.04,-0.56 -0.1,-1.73 -0.15,-2.61 C 22.48,18.87 22.28,15.81 22.1,12.95 21.91,10.08 21.7,6.77 21.63,5.59 21.56,4.4 21.48,3.42 21.47,3.41 21.43,3.36 20.15,3.21 19.27,3.17 18.33,3.13 16.99,3.21 16.26,3.36 L 16.01,3.4 14.78,8.66 c -1.98,8.47 -2.03,8.72 -2.45,11.27 -0.15,0.89 -0.27,1.63 -0.27,1.65 0,0.02 -0.05,0.03 -0.11,0.03 -0.11,0 -0.09,0.08 -0.36,-1.62 C 11.32,18.31 10.93,16.47 10.14,13.03 9.78,11.46 9.12,8.66 8.69,6.78 L 7.91,3.4 7.64,3.36 C 6.53,3.15 4.99,3.1 3.71,3.23 Z m 0,0" /><path
         data-v-7de99436=""
         id="groupCanvas-mobilizonLogom-3"
         stroke="none"
         d="m 143.22224,3.3987929 c -0.33,0.02 -0.77,0.08 -0.95,0.11 -0.32,0.05 -0.35,0.08 -0.35,0.27 0,0.13 -0.03,0.62 -0.07,1.12 -0.03,0.49 -0.16,2.58 -0.3,4.64 -0.13,2.0600001 -0.31,4.8900001 -0.4,6.3000001 -0.09,1.41 -0.26,3.99 -0.36,5.74 -0.41,6.38 -0.53,8.31 -0.57,8.8 l -0.04,0.5 0.35,0.11 c 0.43,0.14 3.47,0.16 3.58,0.03 0.03,-0.05 0.14,-1.64 0.23,-3.54 0.1,-1.9 0.19,-3.66 0.21,-3.9 0.01,-0.25 0.04,-0.84 0.06,-1.31 0.02,-0.47 0.06,-1.05 0.07,-1.3 0.08,-1.11 0.24,-4.97 0.3,-7.12 0.12,-4.3900001 0.14,-4.7700001 0.26,-4.7500001 0.06,0.02 0.25,0.73 0.64,2.4700001 0.3,1.35 0.82,3.68 1.16,5.17 0.86,3.83 0.92,4.1 1.1,4.92 0.42,1.89 1.15,5.11 1.18,5.12 0.01,0.02 0.24,0.08 0.51,0.14 0.51,0.09 3.25,0.06 3.6,-0.05 0.19,-0.06 0.14,0.13 0.89,-3.29 0.09,-0.39 0.35,-1.56 0.59,-2.61 0.6,-2.62 1.99,-8.77 2.36,-10.45 0.3,-1.3200001 0.42,-1.6100001 0.55,-1.3400001 0.04,0.07 0.06,0.66 0.06,1.3300001 0,1.71 0.11,4.54 0.34,9.28 0.42,8.69 0.47,9.71 0.51,10.46 l 0.05,0.77 0.37,0.05 c 1.02,0.15 3.38,0.02 3.56,-0.19 0.02,-0.03 0,-0.47 -0.04,-1 -0.03,-0.54 -0.14,-2.19 -0.23,-3.66 -0.09,-1.48 -0.2,-3.14 -0.24,-3.7 -0.04,-0.56 -0.1,-1.73 -0.15,-2.61 -0.06,-0.87 -0.26,-3.93 -0.44,-6.79 -0.19,-2.87 -0.4,-6.1800001 -0.47,-7.3600001 -0.07,-1.19 -0.15,-2.17 -0.16,-2.18 -0.04,-0.05 -1.32,-0.2 -2.2,-0.24 -0.94,-0.04 -2.28,0.04 -3.01,0.19 l -0.25,0.04 -1.23,5.26 c -1.98,8.4700001 -2.03,8.7200001 -2.45,11.2700001 -0.15,0.89 -0.27,1.63 -0.27,1.65 0,0.02 -0.05,0.03 -0.11,0.03 -0.11,0 -0.09,0.08 -0.36,-1.62 -0.27,-1.68 -0.66,-3.52 -1.45,-6.96 -0.36,-1.57 -1.02,-4.3700001 -1.45,-6.2500001 l -0.78,-3.38 -0.27,-0.04 c -1.11,-0.21 -2.65,-0.26 -3.93,-0.13 z m 0,0" /></g></g></svg>
